<?xml version="1.0" encoding="utf-8" standalone="no"?>
<!DOCTYPE svg PUBLIC "-//W3C//DTD SVG 20010904//EN" "http://www.w3.org/TR/2001/REC-SVG-20010904/DTD/svg10.dtd"[]>
<svg version="1.0" xmlns="http://www.w3.org/2000/svg" width="302.84" height="117.99" viewBox="72.32 62.1 302.84 117.99" preserveAspectRatio="xMidYMid meet">
  <g transform="translate(0.000000,207.000000) scale(0.100000,-0.100000)" fill="#000000" stroke="none">
    <path d="M1690 1120 l0 -130 45 0 44 0 3 68 3 67 20 -65 c21 -65 21 -65 61 -68 l40 -3 21 63 21 63 1 -62 1 -63 50 0 50 0 0 130 0 130 -69 0 -70 0 -17 -57 c-10 -32 -21 -62 -25 -66 -3 -5 -14 21 -24 57 l-18 66 -68 0 -69 0 0 -130z" />
    <path d="M2125 1163 c-15 -49 -30 -101 -36 -117 -16 -51 -13 -56 40 -56 41 0 51 4 56 20 4 13 15 20 31 20 17 0 24 -5 24 -20 0 -18 7 -20 56 -20 49 0 56 2 51 18 -2 9 -19 68 -37 130 l-33 112 -63 0 -63 0 -26 -87z m91 -71 c-11 -10 -15 4 -8 28 l7 25 3 -23 c2 -13 1 -26 -2 -30z" />
    <path d="M2380 1210 l0 -40 40 0 c22 0 40 -4 40 -8 0 -4 -20 -28 -45 -52 -40 -39 -45 -50 -43 -80 l3 -35 108 -3 107 -3 0 41 0 40 -47 0 -47 0 47 48 c41 42 47 53 47 90 l0 42 -105 0 -105 0 0 -40z" />
    <path d="M2640 1120 l0 -130 100 0 100 0 0 35 0 35 -49 0 c-28 0 -53 5 -56 10 -4 6 13 10 44 10 l51 0 0 40 0 40 -51 0 c-31 0 -48 4 -44 10 3 6 28 10 56 10 l49 0 0 35 0 35 -100 0 -100 0 0 -130z" />
    <path d="M1019 857 c-89 -59 -86 -172 4 -227 38 -24 85 -25 132 -6 41 17 41 20 16 63 -19 30 -22 31 -50 20 -35 -13 -61 3 -61 38 0 35 26 51 61 38 28 -11 31 -10 50 20 25 43 25 46 -16 63 -49 20 -97 17 -136 -9z" />
    <path d="M1224 867 c-2 -7 -3 -67 -2 -133 l3 -119 45 0 45 0 3 43 c3 39 5 42 32 42 27 0 29 -3 32 -42 l3 -43 45 0 45 0 0 130 0 130 -47 3 -48 3 0 -45 c0 -44 -1 -46 -30 -46 -29 0 -30 2 -30 45 l0 45 -45 0 c-28 0 -48 -5 -51 -13z" />
    <path d="M1555 793 c-14 -48 -32 -107 -40 -130 -7 -24 -11 -44 -7 -46 4 -2 26 -5 49 -6 33 -2 44 2 53 18 14 26 56 28 62 3 4 -14 16 -19 51 -20 25 -2 48 1 51 6 3 5 -12 65 -32 133 l-38 124 -61 3 -62 3 -26 -88z m91 -81 c-12 -11 -18 7 -10 30 l8 23 4 -23 c2 -13 1 -26 -2 -30z" />
    <path d="M1810 745 l0 -136 95 2 95 2 0 43 0 44 -50 0 -50 0 0 90 0 90 -45 0 -45 0 0 -135z" />
    <path d="M2034 867 c-2 -7 -3 -67 -2 -133 l3 -119 98 -3 97 -3 0 45 0 46 -50 0 -50 0 0 90 0 90 -45 0 c-28 0 -48 -5 -51 -13z" />
    <path d="M2264 867 c-2 -7 -3 -67 -2 -133 l3 -119 100 0 100 0 3 38 3 37 -55 0 c-31 0 -56 5 -56 10 0 6 23 10 50 10 l50 0 0 35 0 35 -50 0 c-27 0 -50 5 -50 10 0 6 23 10 50 10 l50 0 0 40 0 40 -95 0 c-70 0 -97 -4 -101 -13z" />
    <path d="M2504 867 c-2 -7 -3 -67 -2 -133 l3 -119 45 0 45 0 5 54 5 53 30 -53 c31 -54 31 -54 80 -54 l50 0 3 133 3 133 -48 -3 -48 -3 0 -53 c0 -28 -1 -52 -2 -52 -2 0 -17 25 -34 55 l-31 55 -49 0 c-32 0 -51 -5 -55 -13z" />
    <path d="M2883 865 c-40 -17 -73 -69 -73 -115 0 -105 108 -170 206 -124 33 16 34 19 34 71 l0 54 -42 -3 c-36 -2 -44 -7 -46 -25 -2 -13 -7 -23 -12 -23 -13 0 -40 30 -40 45 0 18 28 45 46 45 9 0 24 -4 34 -10 15 -8 22 -4 39 26 12 19 21 37 21 38 0 2 -15 11 -34 20 -41 19 -90 20 -133 1z" />
    <path d="M3094 867 c-2 -7 -3 -67 -2 -133 l3 -119 100 0 100 0 3 38 3 37 -55 0 c-31 0 -56 5 -56 10 0 6 20 10 45 10 45 0 45 0 45 35 0 35 0 35 -45 35 -25 0 -45 5 -45 10 0 6 23 10 50 10 l50 0 0 40 0 40 -95 0 c-70 0 -97 -4 -101 -13z" />
    <path d="M3334 867 c-2 -7 -3 -67 -2 -133 l3 -119 45 0 45 0 5 44 5 44 22 -45 c21 -45 22 -45 72 -45 28 0 51 4 51 9 0 4 -11 26 -25 49 -24 37 -24 41 -10 62 33 47 14 110 -40 133 -44 18 -164 19 -171 1z m124 -80 c2 -10 -3 -17 -12 -17 -10 0 -16 9 -16 21 0 24 23 21 28 -4z" />
  </g>
</svg>